# xmcd
#
# Track frame offsets:
#	150
#	29408
#	56068
#	79739
#	110363
#	140799
#	163517
#	195242
#	211471
#	236128
#	260073
#
# Disc length: 3901 seconds
#
# Revision: 0
# Processed by: cddbd v1.5.2PL0 Copyright (c) Steve Scherf et al.
# Submitted via: EZCDAudioConverter 3.1.7.1
#
DISCID=9e0f3b0b
DTITLE=Frank Cottrell Boyce - Cosmic
DYEAR=2009
DGENRE=Books and Spoken
TTITLE0=Disc 1 Track 1
TTITLE1=Disc 1 Track 2
TTITLE2=Disc 1 Track 3
TTITLE3=Disc 1 Track 4
TTITLE4=Disc 1 Track 5
TTITLE5=Disc 1 Track 6
TTITLE6=Disc 1 Track 7
TTITLE7=Disc 1 Track 8
TTITLE8=Disc 1 Track 9
TTITLE9=Disc 1 Track 10
TTITLE10=Disc 1 Track 11
EXTD=
EXTT0=
EXTT1=
EXTT2=
EXTT3=
EXTT4=
EXTT5=
EXTT6=
EXTT7=
EXTT8=
EXTT9=
EXTT10=
PLAYORDER=
